<svg width="47" height="47" viewBox="0 0 47 47" fill="none" xmlns="http://www.w3.org/2000/svg">
<rect width="47" height="47" fill="#626161"/>
<path d="M28.3767 12H17.623C13.9711 12 11 14.9712 11 18.6231V29.3769C11 33.0289 13.9711 36 17.623 36H28.3767C32.0289 36 35 33.0288 35 29.3769V18.6231C35.0001 14.9712 32.0289 12 28.3767 12ZM32.8707 29.3769C32.8707 31.8548 30.8548 33.8706 28.3769 33.8706H17.623C15.1452 33.8707 13.1294 31.8548 13.1294 29.3769V18.6231C13.1294 16.1454 15.1452 14.1294 17.623 14.1294H28.3767C30.8546 14.1294 32.8706 16.1454 32.8706 18.6231V29.3769H32.8707Z" fill="white"/>
<path d="M23 17.8162C19.59 17.8162 16.8158 20.5903 16.8158 24.0004C16.8158 27.4102 19.59 30.1843 23 30.1843C26.41 30.1843 29.1842 27.4102 29.1842 24.0004C29.1842 20.5903 26.41 17.8162 23 17.8162ZM23 28.0547C20.7643 28.0547 18.9452 26.2359 18.9452 24.0002C18.9452 21.7643 20.7641 19.9454 23 19.9454C25.2359 19.9454 27.0548 21.7643 27.0548 24.0002C27.0548 26.2359 25.2357 28.0547 23 28.0547Z" fill="white"/>
<path d="M29.4436 16.0105C29.0333 16.0105 28.6303 16.1766 28.3405 16.4676C28.0494 16.7572 27.882 17.1604 27.882 17.5721C27.882 17.9825 28.0495 18.3855 28.3405 18.6765C28.6301 18.9661 29.0333 19.1336 29.4436 19.1336C29.8553 19.1336 30.257 18.9661 30.548 18.6765C30.839 18.3855 31.0051 17.9823 31.0051 17.5721C31.0051 17.1604 30.839 16.7572 30.548 16.4676C30.2584 16.1766 29.8553 16.0105 29.4436 16.0105Z" fill="white"/>
</svg>
