<svg width="47" height="47" viewBox="0 0 47 47" fill="none" xmlns="http://www.w3.org/2000/svg">
<rect width="47" height="47" fill="#626161"/>
<path d="M35 16.3085C34.1075 16.7 33.1565 16.9595 32.165 17.0855C33.185 16.4765 33.9635 15.5195 34.3295 14.366C33.3785 14.933 32.3285 15.3335 31.2095 15.557C30.3065 14.5955 29.0195 14 27.6155 14C24.8915 14 22.6985 16.211 22.6985 18.9215C22.6985 19.3115 22.7315 19.6865 22.8125 20.0435C18.722 19.844 15.1025 17.8835 12.671 14.897C12.2465 15.6335 11.9975 16.4765 11.9975 17.384C11.9975 19.088 12.875 20.5985 14.183 21.473C13.3925 21.458 12.617 21.2285 11.96 20.867C11.96 20.882 11.96 20.9015 11.96 20.921C11.96 23.312 13.6655 25.298 15.902 25.7555C15.5015 25.865 15.065 25.9175 14.612 25.9175C14.297 25.9175 13.979 25.8995 13.6805 25.8335C14.318 27.782 16.127 29.2145 18.278 29.261C16.604 30.5705 14.4785 31.3595 12.1775 31.3595C11.774 31.3595 11.387 31.3415 11 31.292C13.1795 32.6975 15.7625 33.5 18.548 33.5C27.602 33.5 32.552 26 32.552 19.499C32.552 19.2815 32.5445 19.0715 32.534 18.863C33.5105 18.17 34.331 17.3045 35 16.3085Z" fill="white"/>
</svg>
