<svg width="47" height="47" viewBox="0 0 47 47" fill="none" xmlns="http://www.w3.org/2000/svg">
<rect width="47" height="47" fill="#626161"/>
<path d="M30.9157 24.0283C30.5277 23.5383 30.6387 23.3203 30.9157 22.8822C30.9207 22.8772 34.1238 18.4511 34.4538 16.95L34.4558 16.949C34.6198 16.402 34.4558 16 33.6628 16H31.0387C30.3707 16 30.0627 16.345 29.8977 16.731C29.8977 16.731 28.5616 19.9291 26.6715 22.0022C26.0615 22.6012 25.7795 22.7932 25.4465 22.7932C25.2825 22.7932 25.0275 22.6012 25.0275 22.0542V16.949C25.0275 16.293 24.8405 16 24.2875 16H20.1613C19.7423 16 19.4933 16.306 19.4933 16.591C19.4933 17.213 20.4383 17.356 20.5363 19.1061V22.9032C20.5363 23.7353 20.3853 23.8883 20.0503 23.8883C19.1583 23.8883 16.9932 20.6772 15.7102 17.002C15.4512 16.289 15.1981 16.001 14.5251 16.001H11.9C11.151 16.001 11 16.346 11 16.732C11 17.414 11.892 20.8052 15.1481 25.2853C17.3182 28.3434 20.3743 30.0005 23.1544 30.0005C24.8255 30.0005 25.0295 29.6325 25.0295 28.9995C25.0295 26.0774 24.8785 25.8013 25.7155 25.8013C26.1035 25.8013 26.7715 25.9933 28.3316 27.4684C30.1147 29.2175 30.4077 30.0005 31.4057 30.0005H34.0298C34.7778 30.0005 35.1568 29.6325 34.9388 28.9064C34.4398 27.3794 31.0677 24.2383 30.9157 24.0283Z" fill="white"/>
</svg>
