<svg width="47" height="47" viewBox="0 0 47 47" fill="none" xmlns="http://www.w3.org/2000/svg">
<rect width="47" height="47" fill="#626161"/>
<path d="M34.469 17.429L34.499 17.625C34.209 16.596 33.426 15.802 32.431 15.513L32.41 15.508C30.5391 15 23.0101 15 23.0101 15C23.0101 15 15.5002 14.99 13.6103 15.508C12.5963 15.802 11.8123 16.596 11.5273 17.604L11.5223 17.625C10.8233 21.2759 10.8183 25.6629 11.5533 29.5718L11.5223 29.3738C11.8123 30.4028 12.5953 31.1968 13.5903 31.4858L13.6113 31.4908C15.4802 31.9998 23.0111 31.9998 23.0111 31.9998C23.0111 31.9998 30.5201 31.9998 32.411 31.4908C33.426 31.1968 34.21 30.4028 34.495 29.3948L34.5 29.3738C34.818 27.6759 35 25.7219 35 23.7259C35 23.6529 35 23.5789 34.999 23.5049C35 23.4369 35 23.3559 35 23.2749C35 21.2779 34.818 19.324 34.469 17.429ZM20.6082 27.1509V19.858L26.8741 23.5099L20.6082 27.1509Z" fill="white"/>
</svg>
