<svg width="65" height="65" viewBox="0 0 65 65" fill="none" xmlns="http://www.w3.org/2000/svg">
<g filter="url(#filter0_d)">
<rect x="10" y="10" width="45" height="45" rx="5" fill="white"/>
</g>
<path d="M21.4697 31.4697C21.1768 31.7626 21.1768 32.2374 21.4697 32.5303L26.2426 37.3033C26.5355 37.5962 27.0104 37.5962 27.3033 37.3033C27.5962 37.0104 27.5962 36.5355 27.3033 36.2426L23.0607 32L27.3033 27.7574C27.5962 27.4645 27.5962 26.9896 27.3033 26.6967C27.0104 26.4038 26.5355 26.4038 26.2426 26.6967L21.4697 31.4697ZM44 31.25L22 31.25L22 32.75L44 32.75L44 31.25Z" fill="#48484C"/>
<defs>
<filter id="filter0_d" x="0" y="0" width="65" height="65" filterUnits="userSpaceOnUse" color-interpolation-filters="sRGB">
<feFlood flood-opacity="0" result="BackgroundImageFix"/>
<feColorMatrix in="SourceAlpha" type="matrix" values="0 0 0 0 0 0 0 0 0 0 0 0 0 0 0 0 0 0 127 0"/>
<feOffset/>
<feGaussianBlur stdDeviation="5"/>
<feColorMatrix type="matrix" values="0 0 0 0 0 0 0 0 0 0 0 0 0 0 0 0 0 0 0.25 0"/>
<feBlend mode="normal" in2="BackgroundImageFix" result="effect1_dropShadow"/>
<feBlend mode="normal" in="SourceGraphic" in2="effect1_dropShadow" result="shape"/>
</filter>
</defs>
</svg>
