<svg width="69" height="69" viewBox="0 0 69 69" fill="none" xmlns="http://www.w3.org/2000/svg">
<rect x="0.5875" y="0.5875" width="67.825" height="67.825" fill="#626161" stroke="white" stroke-width="1.175"/>
<path d="M34.5303 16.4697C34.2374 16.1768 33.7626 16.1768 33.4697 16.4697L28.6967 21.2426C28.4038 21.5355 28.4038 22.0104 28.6967 22.3033C28.9896 22.5962 29.4645 22.5962 29.7574 22.3033L34 18.0607L38.2426 22.3033C38.5355 22.5962 39.0104 22.5962 39.3033 22.3033C39.5962 22.0104 39.5962 21.5355 39.3033 21.2426L34.5303 16.4697ZM34.75 35L34.75 17L33.25 17L33.25 35L34.75 35Z" fill="white"/>
<path d="M13.24 45.662V49.456H18.028V45.662H19.064V55H18.028V50.436H13.24V55H12.204V45.662H13.24ZM25.6735 50.016V49.19H26.6815V55H25.6735V54.188C25.1695 54.8413 24.5069 55.168 23.6855 55.168C22.9015 55.168 22.2342 54.8973 21.6835 54.356C21.1329 53.8147 20.8575 53.0587 20.8575 52.088C20.8575 51.136 21.1282 50.394 21.6695 49.862C22.2202 49.3207 22.8922 49.05 23.6855 49.05C24.5255 49.05 25.1882 49.372 25.6735 50.016ZM23.7975 49.946C23.2655 49.946 22.8129 50.1373 22.4395 50.52C22.0755 50.8933 21.8935 51.416 21.8935 52.088C21.8935 52.732 22.0615 53.2593 22.3975 53.67C22.7429 54.0713 23.2095 54.272 23.7975 54.272C24.3855 54.272 24.8522 54.062 25.1975 53.642C25.5522 53.222 25.7295 52.7087 25.7295 52.102C25.7295 51.4113 25.5335 50.8793 25.1415 50.506C24.7495 50.1327 24.3015 49.946 23.7975 49.946ZM28.5907 49.19H30.7887C31.3207 49.19 31.7267 49.302 32.0067 49.526C32.3427 49.7967 32.5107 50.1607 32.5107 50.618C32.5107 51.122 32.3007 51.5093 31.8807 51.78C32.17 51.8547 32.4127 51.9853 32.6087 52.172C32.9167 52.4707 33.0707 52.844 33.0707 53.292C33.0707 53.852 32.87 54.2907 32.4687 54.608C32.1233 54.8693 31.666 55 31.0967 55H28.5907V49.19ZM29.5987 51.556H30.6627C30.9333 51.556 31.148 51.5 31.3067 51.388C31.4933 51.248 31.5867 51.0473 31.5867 50.786C31.5867 50.5527 31.4933 50.366 31.3067 50.226C31.1667 50.1327 30.896 50.086 30.4947 50.086H29.5987V51.556ZM29.5987 54.104H30.8447C31.274 54.104 31.5773 54.0387 31.7547 53.908C31.9787 53.74 32.0907 53.5253 32.0907 53.264C32.0907 52.984 31.9927 52.7647 31.7967 52.606C31.6193 52.466 31.316 52.396 30.8867 52.396H29.5987V54.104ZM38.9183 53.054L39.7583 53.516C39.5623 53.8893 39.3243 54.202 39.0443 54.454C38.5123 54.93 37.8683 55.168 37.1123 55.168C36.3283 55.168 35.6516 54.916 35.0823 54.412C34.5223 53.8987 34.2423 53.138 34.2423 52.13C34.2423 51.2433 34.4943 50.5107 34.9983 49.932C35.5116 49.344 36.1976 49.05 37.0563 49.05C38.027 49.05 38.7596 49.4047 39.2543 50.114C39.6463 50.674 39.8283 51.402 39.8003 52.298H35.2783C35.2876 52.886 35.4696 53.362 35.8243 53.726C36.179 54.09 36.613 54.272 37.1263 54.272C37.5836 54.272 37.9803 54.132 38.3163 53.852C38.5776 53.628 38.7783 53.362 38.9183 53.054ZM35.3483 51.458H38.7643C38.6803 51.0007 38.4796 50.6367 38.1623 50.366C37.8543 50.086 37.4856 49.946 37.0563 49.946C36.6363 49.946 36.263 50.0907 35.9363 50.38C35.619 50.66 35.423 51.0193 35.3483 51.458ZM42.3545 54.188V58.22H41.3465V49.19H42.3545V50.002C42.8679 49.3673 43.5305 49.05 44.3425 49.05C45.2105 49.05 45.8965 49.358 46.4005 49.974C46.9139 50.5807 47.1705 51.2993 47.1705 52.13C47.1705 52.97 46.9185 53.6887 46.4145 54.286C45.9105 54.874 45.2339 55.168 44.3845 55.168C43.5352 55.168 42.8585 54.8413 42.3545 54.188ZM44.2445 54.272C44.8139 54.272 45.2712 54.0667 45.6165 53.656C45.9619 53.236 46.1345 52.7273 46.1345 52.13C46.1345 51.458 45.9432 50.926 45.5605 50.534C45.1779 50.142 44.7345 49.946 44.2305 49.946C43.7265 49.946 43.2785 50.142 42.8865 50.534C42.4945 50.926 42.2985 51.4533 42.2985 52.116C42.2985 52.7227 42.4759 53.236 42.8305 53.656C43.1945 54.0667 43.6659 54.272 44.2445 54.272ZM47.739 55L50.217 51.892L48.103 49.19H49.335L50.833 51.164L52.359 49.19H53.591L51.463 51.906L53.871 55H52.639L50.805 52.634L48.971 55H47.739Z" fill="white"/>
</svg>
