<svg width="422" height="350" viewBox="0 0 422 350" fill="none" xmlns="http://www.w3.org/2000/svg">
<path d="M140.894 323.681L180.366 309.144M140.894 323.681L155.32 309.144H180.366M140.894 323.681H165.941V349L180.366 334.463V309.144M180.207 309.064H205.254V334.384L219.679 319.847V294.528M180.207 309.064L194.633 294.528M180.207 309.064V283.745H155.161L169.587 269.208H194.633M194.633 294.528H219.679M194.633 294.528V269.208M219.679 294.528L234.104 279.991V254.672M219.679 294.528V269.208H194.633M194.633 269.208L209.058 254.672M194.633 269.208V243.889H169.587L184.012 229.353H209.058M209.058 254.672H234.104M209.058 254.672V229.353M234.104 254.672L273.576 240.135M234.104 254.672L248.53 240.135M234.104 254.672H259.151V279.991L273.576 265.454V240.135M234.104 254.672V229.353H209.058M155.082 283.825L194.554 269.288H169.587M155.082 283.825L169.587 269.288M155.082 283.825L115.61 298.361M155.082 283.825H130.036M155.082 283.825V309.144L140.657 323.681V298.361H115.61M169.587 269.288L155.161 283.825V258.506H130.115M169.587 269.288V243.969M115.61 298.361L130.036 283.825M115.61 298.361V273.042H90.5641M130.036 283.825V258.506M352.598 210.982H377.645V236.301L392.07 221.765V196.445M352.598 210.982L367.024 196.445M352.598 210.982V185.663H327.552M367.024 196.445H392.07M367.024 196.445V171.126M392.07 196.445L406.575 181.909V156.59M392.07 196.445V171.126H367.024M273.576 240.135H248.53M273.576 240.135L313.048 225.599H288.001L273.576 240.135ZM248.53 240.135V214.816M273.655 240.135H298.701V265.454L313.127 250.918V225.599M273.655 240.135L288.081 225.599M273.655 240.135V214.816H248.609L263.034 200.279M288.081 225.599H313.127M288.081 225.599V200.279M313.127 225.599L327.552 211.062V185.743M313.127 225.599V200.279H288.081M367.024 171.126L406.495 156.59H381.449M367.024 171.126L381.449 156.59M367.024 171.126H341.978M381.449 156.59H406.575M406.575 156.59L421 142.053V116.734M406.575 156.59V131.27H381.528M169.587 243.969L209.058 229.432M169.587 243.969L184.012 229.432M169.587 243.969H144.54M169.587 243.969V218.65H144.54M209.058 229.432H184.012M209.058 229.432L248.53 214.896H223.483L209.058 229.432ZM184.012 229.432V204.113M209.058 229.353L223.483 214.816M209.058 229.353V204.033H184.012L198.437 189.497H223.483M51.0925 287.579H76.1387V312.898L90.5641 298.361V273.042M51.0925 287.579L65.5178 273.042M51.0925 287.579V262.26H26.0462L40.4716 247.723H65.5178M65.5178 273.042H90.5641M65.5178 273.042V247.723M90.5641 273.042L130.036 258.506M90.5641 273.042L104.989 258.506M90.5641 273.042V247.723H65.5178M130.036 258.506L169.507 243.969H144.461L130.036 258.506ZM130.036 258.506H104.989M130.115 258.506L144.54 243.969M130.115 258.506V233.186H105.069L119.494 218.65H144.54M144.54 243.969V218.65M104.989 258.506V233.186M327.552 185.743L367.024 171.206H341.978L327.552 185.743ZM327.552 185.743L288.081 200.279M327.552 185.743H302.506L288.081 200.279M327.552 185.663L341.978 171.126M327.552 185.663V160.344H302.506L316.931 145.807H341.978M341.978 171.126V145.807M223.483 214.816H248.53M223.483 214.816V189.497M248.53 214.816L288.001 200.279H262.955M248.53 214.816L262.955 200.279M248.53 214.816L263.034 200.279M248.53 214.816V189.497H223.483M288.081 200.279H263.034M262.955 200.279V174.96M262.955 200.279H263.034M381.528 131.27L421 116.734M381.528 131.27L395.954 116.734M381.528 131.27H356.482L342.057 145.807H367.103V171.126L381.528 156.59V131.27ZM381.528 131.27V105.951H356.482M421 116.734H395.954M395.954 116.734V91.4145H370.908M341.978 145.887L381.449 131.35H356.403L341.978 145.887ZM341.978 145.887L302.506 160.423M341.978 145.887H316.931M144.54 218.65L184.012 204.113M144.54 218.65L158.966 204.113M144.54 218.65V193.331H119.494L133.919 178.794M184.012 204.113H158.966M184.012 204.113L223.483 189.577H198.437L184.012 204.113ZM158.966 204.113V178.794H133.919M26.0462 262.339L65.5178 247.803M26.0462 262.339L40.4716 247.803M26.0462 262.339V237.02H1M65.5178 247.803H40.4716M65.5178 247.803L104.989 233.266H79.9432L65.5178 247.803ZM40.4716 247.803V222.484M65.5178 247.723L79.9432 233.186H104.989M104.989 233.186L144.461 218.65H119.415M104.989 233.186L119.415 218.65M104.989 233.186V207.867H79.9432M119.415 218.65V193.331M302.506 160.423L316.931 145.887M302.506 160.423V135.104H277.46M316.931 145.887V120.568M341.978 145.807L356.403 131.27V106.031M341.978 145.807V120.568H316.931M223.483 189.497L262.955 174.96M223.483 189.497L237.909 174.96M223.483 189.497V164.177H198.437M262.955 174.96H237.909M237.909 174.96V149.641M356.403 106.031L395.875 91.4944H370.908L356.403 106.031ZM356.403 106.031L316.931 120.568M356.403 106.031H331.357M356.482 105.951L370.908 91.4145M356.482 105.951V80.6319H331.436L345.861 66.0952M370.908 91.4145V66.0952M316.931 120.568L331.357 106.031M316.931 120.568L277.46 135.104M316.931 120.568H291.885M316.931 120.568V95.2483H291.885M331.357 106.031V80.7117M119.415 193.331L158.886 178.794H133.919M119.415 193.331L133.919 178.794M119.415 193.331L79.9432 207.867M119.415 193.331H94.3686L79.9432 207.867M1 237.02L40.4716 222.484M1 237.02L15.4254 222.484H40.4716M277.46 135.104L291.885 120.568M277.46 135.104H252.413M277.46 135.104V160.423L263.034 174.96V149.641H237.988M277.46 135.104V109.785H252.413M291.885 120.568V95.2483M237.909 149.641L277.38 135.104H252.334L237.909 149.641ZM237.909 149.641H212.863M237.988 149.641L252.413 135.104M237.988 149.641V124.322H212.942M252.413 135.104V109.785M198.437 164.177L212.863 149.641M198.437 164.177V138.938H173.391M212.863 149.641V124.401M331.357 80.7117L370.908 66.0952M331.357 80.7117L345.861 66.0952M331.357 80.7117L291.885 95.2483M331.357 80.7117H306.31M370.908 66.0952H345.861M291.885 95.2483L306.31 80.7117M291.885 95.2483L252.413 109.785M291.885 95.2483H266.839M291.885 95.2483V69.9291H266.839M306.31 80.7117V55.3925M252.413 109.785L266.839 95.2483M252.413 109.785H227.367M252.413 109.785V84.4657H227.367M266.839 95.2483V69.9291M212.863 124.401L252.334 109.865H227.288L212.863 124.401ZM212.863 124.401L173.391 138.938M212.863 124.401H187.816M212.942 124.322L227.367 109.785M212.942 124.322V99.0023H187.816L202.242 84.4657H227.288V109.785H227.367M173.391 138.938L187.816 124.401M173.391 138.938V113.619H148.345M187.816 124.401V99.0822M266.839 69.9291L306.31 55.3925M266.839 69.9291L281.264 55.3925M266.839 69.9291L227.367 84.4657M266.839 69.9291H241.793M266.839 69.9291V44.6098H241.793M306.31 55.3925H281.264M281.264 55.3925V30.0732M227.367 84.4657L241.793 69.9291M227.367 84.4657V59.2263H202.321M241.793 69.9291V44.6897M187.816 99.0822L227.288 84.5456H202.242L187.816 99.0822ZM187.816 99.0822L148.345 113.619M187.816 99.0822H162.77L148.345 113.619M320.815 15.5366L360.287 1M320.815 15.5366L335.24 1H360.287M320.815 15.5366H345.861V40.776L360.287 26.2394V1M241.793 44.6098L281.264 30.0732M241.793 44.6098L256.218 30.0732H281.264M202.321 59.2263L241.793 44.6897M202.321 59.2263L216.746 44.6897H241.793M180.128 309.144L219.6 294.608H194.554L180.128 309.144ZM298.622 265.454L338.094 250.918H313.048L298.622 265.454ZM338.173 276.157L323.748 290.694V265.375H298.701L313.127 250.838H338.173V276.157ZM194.633 269.288L234.104 254.752H209.058L194.633 269.288ZM352.598 211.062L392.07 196.525H367.024L352.598 211.062ZM51.0925 287.659L90.5641 273.122H65.5178L51.0925 287.659ZM198.437 164.257L237.909 149.721H212.863L198.437 164.257Z" stroke="white" stroke-width="0.5" stroke-miterlimit="10" stroke-linecap="round" stroke-linejoin="round"/>
</svg>
